# This file uses centimeters as units for non-parametric coordinates.

mtllib Planes.mtl
g default
v 1.150000 1.800000 19.654420
v 3.150000 1.800000 18.556066
v 1.150000 1.800000 -19.654422
v 3.150000 1.800000 -18.556066
vt 0.000000 0.000000
vt 1.000000 0.000000
vt 1.000000 1.000000
vt 0.000000 1.000000
vn 0.000000 1.000000 0.000000
vn 0.000000 1.000000 0.000000
vn 0.000000 1.000000 0.000000
vn 0.000000 1.000000 0.000000
s off
g polySurface3 pPlane1
usemtl blinn1SG
f 1/1/1 2/2/2 4/3/3 3/4/4
g default
v 1.150000 -1.785209 -19.654422
v 3.150000 -1.785209 -18.556066
v 1.150000 1.800000 -19.654422
v 3.150000 1.800000 -18.556066
vt 0.000000 0.000000
vt 1.000000 0.000000
vt 1.000000 1.000000
vt 0.000000 1.000000
vn 0.481365 -0.000000 -0.876520
vn 0.481365 -0.000000 -0.876520
vn 0.481365 -0.000000 -0.876520
vn 0.481365 -0.000000 -0.876520
s off
g pPlane1 polySurface4
usemtl blinn1SG
f 7/5/5 8/6/6 6/7/7 5/8/8
g default
v 1.150000 -1.785209 19.654420
v 3.150000 -1.785209 18.556066
v 3.150000 1.800000 18.556066
v 1.150000 1.800000 19.654420
vt 0.000000 0.000000
vt 1.000000 0.000000
vt 1.000000 1.000000
vt 0.000000 1.000000
vn 0.481365 -0.000000 0.876520
vn 0.481365 -0.000000 0.876520
vn 0.481365 -0.000000 0.876520
vn 0.481365 -0.000000 0.876520
s off
g pPlane1 polySurface2
usemtl blinn1SG
f 11/9/9 12/10/10 9/11/11 10/12/12
